<svg width="51" height="51" viewBox="0 0 51 51" fill="none" xmlns="http://www.w3.org/2000/svg">
<path fill-rule="evenodd" clip-rule="evenodd" d="M27.8366 14.875V15.3C27.8366 16.4687 26.8825 17.425 25.7116 17.425H25.2888C24.1179 17.425 23.1638 16.4687 23.1638 15.3V14.875C23.1638 13.7062 24.1179 12.75 25.2888 12.75H25.7116C26.8825 12.75 27.8366 13.7062 27.8366 14.875M27.6241 22.7375V36.7625C27.6241 37.5828 26.9569 38.25 26.1366 38.25H24.8638C24.0435 38.25 23.3741 37.5828 23.3741 36.7625V22.7375C23.3741 21.9194 24.0435 21.25 24.8638 21.25H26.1366C26.9569 21.25 27.6241 21.9194 27.6241 22.7375M25.4991 45.475C14.4853 45.475 5.52415 36.516 5.52415 25.5C5.52415 14.484 14.4853 5.525 25.4991 5.525C36.5151 5.525 45.4763 14.484 45.4763 25.5C45.4763 36.516 36.5151 45.475 25.4991 45.475M25.4991 2.125C12.5898 2.125 2.12415 12.5906 2.12415 25.5C2.12415 38.4094 12.5898 48.875 25.4991 48.875C38.4106 48.875 48.8741 38.4094 48.8741 25.5C48.8741 12.5906 38.4106 2.125 25.4991 2.125" fill="#3DA556"/>
</svg>
