<svg width="177" height="45" viewBox="0 0 177 45" fill="none" xmlns="http://www.w3.org/2000/svg">
<path d="M15.7574 23.855H9.85327L12.9978 12.8344L15.7574 23.855ZM6.79088 36L8.80652 28.7428H16.7609L18.6468 35.9814H26L18.6944 8.38346C18.2619 6.75267 17.3535 6 15.7574 6H5.3289V8.60647H6.19398C7.28398 8.60647 7.87223 9.07109 7.87223 9.95849C7.87223 10.5486 7.75112 11.041 7.31858 12.3838L0 36H6.79088Z" fill="#003781"/>
<path d="M35 36V8.29983C35 6.85489 34.1719 6 32.8023 6H26V8.60647H26.455C27.5971 8.60647 28.0839 9.10361 28.0839 10.2837V36H35Z" fill="#003781"/>
<path d="M46 36V8.29983C46 6.85489 45.2503 6 44.0385 6H38V8.60647H38.4053C39.4265 8.60647 39.8602 9.10361 39.8602 10.2837V36H46Z" fill="#003781"/>
<path d="M58 9.19732C58 7.21955 56.5446 6 54.0509 6C51.5572 6 50.0927 7.19671 50.0927 9.19732C50.0927 11.1979 51.5934 12.3946 54.0509 12.3946C56.5083 12.3946 58 11.2071 58 9.19732ZM57.8685 36V16.1492C57.8685 14.7333 57.0343 13.8974 55.6695 13.8974H49V16.4096H49.3945C50.5325 16.4096 51.0176 16.9394 51.0176 18.0904V36H57.8685Z" fill="#003781"/>
<path d="M72.0672 25.4819V29.6616C71.0042 30.8209 69.7101 31.5315 68.6134 31.5315C67.5168 31.5315 67.0672 30.9363 67.0672 29.3107C67.0672 27.685 67.3866 26.9965 68.5294 26.5301C69.6674 26.0404 70.8542 25.6887 72.0672 25.4819ZM63.479 20.4627C65.4307 19.4391 67.5664 18.8668 69.7437 18.7837C71.458 18.7837 72.0672 19.4278 72.0672 21.3067V21.7864C69.4664 22.2305 68.6513 22.3993 67.1849 22.7413C66.3636 22.9326 65.5594 23.1986 64.7815 23.5364C62.2143 24.6246 61 26.7211 61 29.9414C61 34.0278 62.6807 35.9999 66.1218 35.9999C67.2924 36.005 68.4531 35.7744 69.542 35.3203C70.5297 34.8451 71.448 34.2229 72.2689 33.4726V33.7746C72.2689 35.1071 72.916 35.7867 74.1807 35.7867H80V33.4903H79.7143C78.6176 33.4903 78.2143 32.9707 78.2143 31.5982V21.36C78.2143 15.9011 76.4202 14 71.2479 14C69.6082 14.0086 67.9746 14.2128 66.3782 14.6085C64.8698 14.9641 63.417 15.5444 62.063 16.3319L63.479 20.4627Z" fill="#003781"/>
<path d="M90.3608 36V21.3004C91.4422 20.038 92.5535 19.4674 93.8359 19.4674C95.2079 19.4674 95.5456 20.038 95.5456 22.2259V36H102V21.2195C102 17.7782 101.765 16.691 100.718 15.523C99.8628 14.5122 98.5249 14 96.8194 14C94.2932 14 92.5151 14.8221 90.1257 17.1717V16.3047C90.1257 14.9569 89.4546 14.2606 88.1338 14.2606H82V16.7315H82.3719C83.4448 16.7315 83.9064 17.2526 83.9064 18.3847V36H90.3608Z" fill="#003781"/>
<path d="M122 31.3684H112.591L121.589 18.5408V14H107.478C105.88 14 105.143 14.7447 105.143 16.3748V20.3707H107.648V19.9802C107.648 18.9676 108.166 18.4863 109.242 18.4863H114.092L105 31.4592V36H121.969L122 31.3684Z" fill="#003781"/>
<path d="M157.321 35.1241V10.2935C157.321 8.31467 156.602 7.6475 154.64 7.6475H148.698V10.4387H149.055C150.409 10.4387 150.674 10.7383 150.674 12.3359V35.1241H157.321ZM160.253 35.1241H166.85V15.7852C166.85 13.8427 166.085 13.1437 164.15 13.1437H160.253V35.1241ZM147.761 35.1241V13.1619H143.85C141.915 13.1619 141.159 13.8608 141.159 15.8033V35.1241H147.761ZM173.094 22.5023C173.094 33.4448 165.05 41.4009 154.005 41.4009C142.959 41.4009 134.897 33.4448 134.897 22.5023C134.897 11.5598 142.955 3.60363 154.005 3.60363C165.055 3.60363 173.094 11.6051 173.094 22.5023ZM177 22.5023C177 9.6354 167.161 0 154.005 0C140.849 0 131 9.6354 131 22.5023C131 35.3691 140.839 45 154.005 45C167.17 45 177 35.4009 177 22.5023Z" fill="#003781"/>
</svg>
